<svg width="87.502197" height="77.259766" viewBox="0 0 87.5022 77.2598" fill="none" xmlns="http://www.w3.org/2000/svg" xmlns:xlink="http://www.w3.org/1999/xlink">
	<desc>
			Created with Pixso.
	</desc>
	<path d="M5.55762 77.2598L65.8506 77.2598L65.8506 77.2402L81.9443 77.2402C85.2646 77.2402 87.9404 74.3105 87.4424 71.0293C85.7334 59.9263 79.4932 50.7266 70.7822 46.5664C77.0518 42.5137 80.8408 34.9746 79.2979 26.6641C77.9697 19.5156 72.4131 13.5586 65.3818 11.7129C60.8315 10.5151 56.501 11.0088 52.7495 12.6177C49.9719 6.68164 44.5061 2.12451 38.0479 0.619141C23.5459 -2.75928 10.665 8.14844 10.665 22.0742C10.665 30.1309 15.0303 37.1133 21.4854 40.9707C10.3525 45.6777 1.9834 57.123 0.0498047 71.0977C-0.399414 74.3691 2.25684 77.2598 5.55762 77.2598ZM54.4321 17.9458C56.2146 27.7153 51.5254 36.4717 43.9951 40.9707C55.2969 45.7466 63.7527 57.4604 65.5122 71.7227L82.042 71.7227C80.7327 62.6636 75.7239 55.0977 68.5371 51.5889L68.8933 51.7612C68.019 51.3296 67.249 50.6602 66.6904 49.7695C66.1143 48.8613 65.8408 47.8359 65.8408 46.8301L65.8408 46.1758C65.8408 45.2876 66.0557 44.3789 66.5146 43.5391C66.9736 42.6992 67.6182 42.0352 68.3701 41.5469L67.3623 42.1968C70.3823 40.2441 72.8267 37.353 73.6924 33.8613C75.9482 24.75 69.083 16.5664 60.333 16.5664C58.2087 16.5664 56.229 17.0869 54.4321 17.9458ZM68.5371 51.5889C68.488 51.5649 68.439 51.5415 68.3896 51.5176L68.5371 51.5889ZM23.6338 46.0586L23.8486 45.9707C24.8154 45.5605 25.6748 44.877 26.2998 43.9395C26.9023 43.0356 27.1963 42.0142 27.2166 41.0054C27.2173 41.043 27.2178 41.0801 27.2178 41.1172L27.2178 40.8926C27.2178 40.9302 27.2173 40.9678 27.2166 41.0054C27.1985 40.1143 26.9639 39.2178 26.4951 38.3926C26.0068 37.5337 25.3232 36.8496 24.5225 36.3809L24.3076 36.2539C19.2197 33.2168 16.1826 27.9238 16.1826 22.1035C16.1826 12.9731 23.6045 5.55078 32.7354 5.55078C41.8662 5.55078 49.2881 12.9731 49.2881 22.1035C49.2881 27.9238 46.251 33.2173 41.1631 36.2539L40.9482 36.3809C40.1572 36.8594 39.4639 37.5332 38.9756 38.3926C38.5078 39.2163 38.2729 40.1113 38.2542 41.0005C38.2534 40.9614 38.2529 40.9224 38.2529 40.8828L38.2529 41.1172C38.2529 41.0786 38.2534 41.0396 38.2542 41.0005C38.2754 42.0078 38.5693 43.0273 39.1709 43.9297C39.7959 44.8672 40.6553 45.5513 41.6221 45.9609L41.8369 46.0488C51.417 50.0923 58.2725 60.043 59.9326 71.7324L5.53809 71.7324C7.19824 60.0532 14.0537 50.1016 23.6338 46.0586Z" fill-rule="evenodd" fill="url(#paint_linear_26_20_0)"/>
	<defs>
		<linearGradient id="paint_linear_26_20_0" x1="43.751099" y1="0.000000" x2="43.751099" y2="77.260010" gradientUnits="userSpaceOnUse">
			<stop stop-color="#21C5FF"/>
			<stop offset="1.000000" stop-color="#21C5FF" stop-opacity="0.000000"/>
		</linearGradient>
	</defs>
</svg>
