<svg width="71.319824" height="71.317383" viewBox="0 0 71.3198 71.3174" fill="none" xmlns="http://www.w3.org/2000/svg" xmlns:xlink="http://www.w3.org/1999/xlink">
	<desc>
			Created with Pixso.
	</desc>
	<path d="M62.5 55L62.5 7.5C62.5 5.42871 61.7676 3.66113 60.3032 2.19678C58.8389 0.732422 57.071 0 55 0L7.5 0C5.42896 0 3.66113 0.732422 2.19678 2.19678C0.732422 3.66113 0 5.42871 0 7.5L0 55C0 57.0713 0.732422 58.8389 2.19678 60.3032C3.66113 61.7676 5.42896 62.5 7.5 62.5L55 62.5C57.071 62.5 58.8389 61.7676 60.3032 60.3032C61.7676 58.8389 62.5 57.0713 62.5 55ZM5 55L5 7.5Q5 5 7.5 5L55 5Q57.5 5 57.5 7.5L57.5 55C57.5 56.6665 56.6667 57.5 55 57.5L7.5 57.5Q5 57.5 5 55ZM66.3198 10.4575C66.3198 8.79102 67.1531 7.95752 68.8198 7.95752C70.4866 7.95752 71.3198 8.79102 71.3198 10.4575L71.3198 63.5127C71.3198 65.668 70.5579 67.5073 69.0339 69.0312C67.51 70.5557 65.6702 71.3174 63.5149 71.3174L15.7649 71.3174C14.0981 71.3174 13.2649 70.4844 13.2649 68.8174C13.2649 67.1509 14.0981 66.3174 15.7649 66.3174L63.5149 66.3174C65.0649 66.3174 66.3198 65.0625 66.3198 63.5127L66.3198 10.4575ZM34.7725 39.1499L34.7725 41.0146C42.1174 41.79 47.5 44.3076 47.5 47.2949C47.5 50.8999 12.5 50.8999 12.5 47.2949C12.5 44.3076 17.8826 41.79 25.2275 41.0146L25.2275 39.1777C22.585 37.5376 20.0051 34.7373 18.425 31.2852C17.3076 30.75 16.5 29.355 15.8425 26.9229C15.3801 25.2178 15.9724 24.0225 16.895 23.2749C17.29 14.855 22.4075 10 30 10C37.4851 10 42.3726 14.7173 42.8726 22.9199C43.8901 23.5547 44.645 24.7026 44.175 26.4453C43.5676 28.6899 42.8152 29.9502 41.7676 30.395C40.2925 34.2373 37.5801 37.3672 34.7725 39.1499Z" fill-rule="evenodd" fill="url(#paint_linear_26_21_0)" fill-opacity="0.800000"/>
	<defs>
		<linearGradient id="paint_linear_26_21_0" x1="35.659912" y1="0.000000" x2="35.659912" y2="71.317627" gradientUnits="userSpaceOnUse">
			<stop stop-color="#21C5FF"/>
			<stop offset="1.000000" stop-color="#21C5FF" stop-opacity="0.000000"/>
		</linearGradient>
	</defs>
</svg>
