<svg width="46.313232" height="79.984863" viewBox="0 0 46.3132 79.9849" fill="none" xmlns="http://www.w3.org/2000/svg" xmlns:xlink="http://www.w3.org/1999/xlink">
	<desc>
			Created with Pixso.
	</desc>
	<path d="M45.3936 59.6924L45.519 59.6924C46.0522 59.6294 46.3169 59.8662 46.3132 60.4033L46.3132 70.8525C46.3003 71.313 46.0632 71.5498 45.6025 71.5625L42.405 71.5625C41.9314 71.5625 41.6946 71.3262 41.6946 70.8525L41.6946 60.4033C41.6946 59.9292 41.9314 59.6924 42.405 59.6924C42.384 55.5337 42.3005 27.7383 41.6946 20.8838C41.2556 15.1157 34.3174 9.59814 30.8064 7.13232C30.7571 7.62402 30.4854 7.875 29.9912 7.88477L27.7761 7.88477L27.7761 16.4951C31.0156 16.6392 33.7617 17.8774 36.0139 20.2109C38.2661 22.5439 39.4075 25.332 39.4375 28.5742L39.4375 65.5859L7.50439 65.5859L7.50439 28.5742C7.52515 25.4336 8.60107 22.7095 10.7322 20.4023C12.8633 18.0952 15.4934 16.8062 18.6226 16.5366L18.6226 7.23682C18.0818 7.13428 17.5522 7.17627 17.0342 7.3623C12.6382 9.01953 8.45825 11.1094 4.49487 13.6318C3.79224 13.96 3.41602 13.7373 3.36646 12.9629C3.36694 12.3008 3.43652 11.646 3.57544 10.9985C3.76245 10.5088 4.09692 10.1606 4.57861 9.95361C8.24243 8.60742 11.823 7.06787 15.3206 5.33496C16.031 4.95898 15.655 4.45703 15.3206 4.45703C3.30396 4.37354 0.921387 5.29297 0.921387 5.29297C0.676514 5.29932 0.467529 5.21582 0.294434 5.04248C-0.13623 3.98535 -0.0944824 2.94727 0.419678 1.92871C0.438965 1.90869 0.45752 1.88916 0.475342 1.87061C0.943604 1.38232 0.979004 1.34521 1.94531 1.38525C8.46558 1.80322 17.2849 1.67773 19.6255 1.63574C20.7212 0.386719 22.0947 -0.146973 23.7463 0.034668C25.3979 0.216309 26.6226 1.03564 27.4207 2.49316L29.9705 2.49316C30.5278 2.49316 30.8064 2.77148 30.8064 3.3291L30.8064 3.60059C34.5054 4.87549 44.0352 12.6079 44.6831 19.5044C45.4751 27.9331 45.4163 50.5498 45.3972 57.8843C45.3953 58.6787 45.3936 59.2939 45.3936 59.6924ZM7.52539 76.7871L7.52539 68.4277L39.3958 68.4277L39.3958 76.7871C39.3958 79.1489 38.8943 79.9849 37.4731 79.9849L9.448 79.9849C8.02686 79.9849 7.52539 79.1699 7.52539 76.7871Z" fill-rule="evenodd" fill="url(#paint_linear_26_22_0)"/>
	<defs>
		<linearGradient id="paint_linear_26_22_0" x1="23.156616" y1="0.000000" x2="23.156616" y2="79.984863" gradientUnits="userSpaceOnUse">
			<stop stop-color="#21C5FF"/>
			<stop offset="1.000000" stop-color="#21C5FF" stop-opacity="0.000000"/>
		</linearGradient>
	</defs>
</svg>
