<svg width="64.645264" height="69.759277" viewBox="0 0 64.6453 69.7593" fill="none" xmlns="http://www.w3.org/2000/svg" xmlns:xlink="http://www.w3.org/1999/xlink">
	<desc>
			Created with Pixso.
	</desc>
	<path d="M60.7651 54.96C61.1653 57.6797 63.4856 57.2793 63.8855 58.4795C63.8855 59.2393 63.4856 61.9995 62.3257 62.3594C61.1655 62.3594 59.6055 61.96 58.4456 62.3594C57.686 62.7598 56.886 63.1196 56.4861 63.9199C55.7261 65.8789 57.2456 67.4395 56.4861 68.1992C55.3259 68.959 52.9656 70.1592 52.2061 69.3594C51.0459 68.1992 51.0459 66.6387 48.686 66.6387C45.5657 66.6387 45.5657 69.7593 44.0059 69.7593C42.446 69.7593 39.7261 68.5991 39.7261 67.4385C40.126 65.8789 40.886 64.7192 39.3259 63.1592C37.366 61.5991 35.0459 63.1592 34.2461 62.3994C33.0864 61.6392 32.6863 59.6792 33.0864 58.5195C33.4863 57.3594 36.2063 57.3594 36.2063 54.2393C36.2063 51.9199 33.4863 51.5195 33.0864 49.96C32.6863 48.7998 33.4863 46.8389 34.646 46.4395C36.606 45.6797 37.7659 47.1992 39.7261 45.6797C40.886 44.52 40.4861 41.7998 40.4861 40.9995C40.886 39.8398 42.4456 39.4395 43.606 39.4395C45.926 39.4395 45.1655 42.1602 48.2859 42.5601C51.406 42.5601 51.0059 41.3999 52.5657 39.4395C54.5256 39.4395 56.0859 40.1997 56.4456 40.9995C57.2056 42.5596 55.686 44.8799 58.0056 46.4395C59.9651 47.5996 61.8855 46.0396 63.0857 46.4395C63.8452 46.8398 64.2451 47.9995 64.6453 49.5601C63.8855 51.8389 60.3652 51.4395 60.7651 54.96ZM46.7256 47.1597C37.3655 49.4795 40.8855 63.1196 49.8455 61.5996C58.8455 59.6392 57.6455 45.1997 46.7256 47.1597ZM30.7656 33.52C21.4055 33.52 14.0056 26.1201 14.0056 16.7598C14.0056 7.3999 21.4055 0 30.7656 0C40.1252 0 47.5251 7.3999 47.5251 16.7598C47.5256 25.7197 40.1255 33.52 30.7656 33.52ZM44.4055 37.3994C44.4055 37.3994 38.1653 37.3994 38.5652 41.6797C38.9651 46.3594 32.7251 42.8389 31.5657 46.7598C30.0056 51.4395 32.3252 50.6392 33.5251 53.7598C34.2852 55.7197 30.4053 56.8799 30.8052 60.3994C31.5652 65.0796 35.4851 62.7197 36.6453 65.4795C37.4053 67.7998 34.6855 69.3594 28.4451 69.3594C23.3655 69.3594 13.6453 69.3594 10.1252 68.96C10.1252 68.96 0.00512695 68.5596 0.00512695 61.96C0.00512695 61.96 -0.394775 52.1997 5.84521 45.1997C5.84521 45.1997 12.4851 36.6396 23.7656 36.6396L44.4055 37.3994L44.4055 37.3994Z" fill="url(#paint_linear_26_23_0)"/>
	<defs>
		<linearGradient id="paint_linear_26_23_0" x1="32.322632" y1="0.000000" x2="32.322632" y2="69.759277" gradientUnits="userSpaceOnUse">
			<stop stop-color="#21C5FF"/>
			<stop offset="1.000000" stop-color="#21C5FF" stop-opacity="0.000000"/>
		</linearGradient>
	</defs>
</svg>
